<svg width="19" height="20" viewBox="0 0 19 20" fill="none" xmlns="http://www.w3.org/2000/svg"><g clipPath="url(#clip0_7181_268444)"><path d="M17.0822 1.44931C17.2921 1.59914 17.492 1.76719 17.6777 1.95346C19.4421 3.72307 19.4421 6.6002 17.6777 8.36981L16.3171 9.73448L14.2984 11.7592L12.2979 13.7657L9.92188 11.3826L10.7273 10.5747L13.9391 7.35138L15.2997 5.98671C15.7539 5.53115 15.7539 4.79213 15.2997 4.33656C15.0797 4.11587 14.789 3.99439 14.4781 3.99439C14.1672 3.99439 13.8745 4.11587 13.6565 4.33656L12.2959 5.70123L11.1553 4.55726L9.91986 3.31813L11.2805 1.95346C11.4763 1.75707 11.6862 1.58092 11.9083 1.42704C13.4849 0.428848 15.5117 0.436947 17.0822 1.44931Z" fill="#C92127"></path><path d="M7.12419 1.44931C7.33414 1.59914 7.53399 1.76719 7.71971 1.95346L13.1016 7.35138L10.7256 9.73448L5.3437 4.33656C5.12366 4.11587 4.83297 3.99439 4.52209 3.99439C4.21121 3.99439 3.9185 4.11587 3.70048 4.33656C3.24627 4.79213 3.24627 5.53115 3.70048 5.98671L5.06108 7.35138L2.68305 9.73448L1.32245 8.36981C-0.441891 6.6002 -0.441891 3.72307 1.32245 1.95346C1.51827 1.75707 1.72821 1.58092 1.95027 1.42704C3.52687 0.428848 5.55365 0.436947 7.12419 1.44931Z" fill="#C92127"></path><path d="M11.2805 18.3578L5.89861 12.9599L8.27462 10.5747L13.6565 15.9727C13.7372 16.0536 13.8281 16.1205 13.925 16.1751C14.2419 16.4383 14.7062 16.4404 15.0251 16.1792C15.1261 16.1265 15.2189 16.0577 15.2997 15.9747C15.5197 15.754 15.6388 15.4624 15.6388 15.1506C15.6388 14.8388 15.5177 14.5452 15.2997 14.3265L13.9391 12.9619L16.3171 10.5747L17.6777 11.9414C19.4421 13.711 19.4421 16.5882 17.6777 18.3578C15.9134 20.1254 13.0428 20.1254 11.2805 18.3578Z" fill="#C92127"></path><path d="M1.32222 18.3578C-0.442127 16.5882 -0.442127 13.711 1.32222 11.9414L6.70407 6.54352L9.08008 8.92662L3.69822 14.3245C3.24402 14.7801 3.24402 15.5191 3.69822 15.9747C3.77897 16.0557 3.86981 16.1225 3.96671 16.1751C4.28365 16.4383 4.74795 16.4404 5.0669 16.1792C5.16784 16.1265 5.2607 16.0577 5.34145 15.9747L6.70205 14.61L9.08008 16.9911L7.71947 18.3558C5.95513 20.1254 3.08656 20.1254 1.32222 18.3578Z" fill="#C92127"></path></g><defs><clipPath id="clip0_7181_268444"><rect width="19" height="19" fill="white" transform="matrix(-1 0 0 1 19 0.68396)"></rect></clipPath></defs></svg>